<?xml version="1.0" encoding="UTF-8" standalone="no"?>
<svg
   width="64"
   height="64"
   viewBox="0 0 64 64"
   version="1.1"
   id="svg6"
   sodipodi:docname="icon.svg"
   inkscape:version="1.4 (86a8ad7, 2024-10-11)"
   xmlns:inkscape="http://www.inkscape.org/namespaces/inkscape"
   xmlns:sodipodi="http://sodipodi.sourceforge.net/DTD/sodipodi-0.dtd"
   xmlns="http://www.w3.org/2000/svg"
   xmlns:svg="http://www.w3.org/2000/svg">
  <defs
     id="defs6" />
  <sodipodi:namedview
     id="namedview6"
     pagecolor="#ffffff"
     bordercolor="#000000"
     borderopacity="0.25"
     inkscape:showpageshadow="2"
     inkscape:pageopacity="0.0"
     inkscape:pagecheckerboard="true"
     inkscape:deskcolor="#d1d1d1"
     inkscape:document-units="pt"
     showgrid="true"
     inkscape:zoom="5.6568543"
     inkscape:cx="42.868348"
     inkscape:cy="42.514795"
     inkscape:window-width="1920"
     inkscape:window-height="1009"
     inkscape:window-x="1912"
     inkscape:window-y="37"
     inkscape:window-maximized="1"
     inkscape:current-layer="svg6">
    <inkscape:grid
       id="grid6"
       units="pt"
       originx="0"
       originy="0"
       spacingx="1"
       spacingy="1"
       empcolor="#0099e5"
       empopacity="0.30196078"
       color="#0099e5"
       opacity="0.14901961"
       empspacing="5"
       enabled="true"
       visible="true" />
  </sodipodi:namedview>
  <circle
     cx="32"
     cy="32"
     fill="#b22222"
     id="circle1"
     style="stroke-width:0.0547008"
     r="32" />
  <g
     id="#feffffff"
     transform="matrix(-0.04376096,0,0,-0.04376068,57.64378,61.74632)">
    <path
       fill="#feffff"
       opacity="1"
       d="m 563.54,59.91 c 37.59,-4.94 76.82,3.31 108.98,23.46 30.32,18.78 54.35,47.55 67.22,80.83 14.74,37.69 14.98,80.83 0.64,118.68 -13.31,35.56 -39.32,66.15 -72.21,85.11 -33.54,19.62 -74.13,26.54 -112.34,19.65 -36.51,-6.42 -70.57,-25.65 -95.02,-53.5 -27.18,-30.49 -42.32,-71.35 -41.48,-112.2 0.32,-34.4 11.9,-68.55 32.42,-96.15 26.33,-35.88 67.61,-60.32 111.79,-65.88 z"
       id="path1" />
    <path
       fill="#feffff"
       opacity="1"
       d="M 247.08,725.19 C 307.02,610.03 366.94,494.87 426.89,379.72 461.91,415.03 509.02,438.1 558.43,443.9 498.64,558.46 439.19,673.19 379.36,787.73 344,752.76 296.52,730.41 247.08,725.19 Z"
       id="path2" />
    <path
       fill="#feffff"
       opacity="1"
       d="m 730.07,392.05 c 4.71,-3.81 8.86,-8.26 13.47,-12.17 59.81,115.14 119.79,230.2 179.67,345.31 -48.54,5.18 -95.18,26.77 -130.34,60.65 -0.59,0.9 -2.39,1.82 -2.85,0.33 C 730.71,672.06 671.21,558.04 611.97,443.9 c 43.33,-5.13 84.98,-23.45 118.1,-51.85 z"
       id="path3" />
    <path
       fill="#feffff"
       opacity="1"
       d="m 207.9,781.96 c 37.88,-3.58 76.9,6.29 108.32,27.81 29.18,19.73 51.8,48.99 63.45,82.24 12.33,34.96 12.47,74.07 0.36,109.1 -9.62,27.99 -26.9,53.3 -49.49,72.41 -18.67,15.91 -40.92,27.6 -64.63,33.89 -29.38,7.76 -60.91,7.35 -90.04,-1.31 -24.56,-7.27 -47.36,-20.38 -66.03,-37.93 -22.29,-20.77 -38.68,-47.82 -46.66,-77.24 -10.17,-37.11 -7.02,-77.78 9.1,-112.75 14.48,-31.82 39.35,-58.77 69.87,-75.81 20.15,-11.34 42.72,-18.34 65.75,-20.41 z"
       id="path4" />
    <path
       fill="#feffff"
       opacity="1"
       d="m 931.88,781.95 c 39.35,-3.73 79.9,7.14 111.91,30.37 28.33,20.29 50.03,49.71 60.87,82.84 13.86,41.86 10.21,89.26 -10.31,128.33 -16.61,32.14 -44.05,58.53 -76.85,73.83 -40.41,19.15 -88.7,20.72 -130.34,4.46 -32.84,-12.65 -61.34,-36.14 -80.16,-65.87 -21.4,-33.41 -29.92,-74.68 -23.85,-113.85 5.18,-35.16 22.27,-68.4 47.69,-93.21 26.91,-26.69 63.28,-43.58 101.04,-46.9 z"
       id="path5" />
    <path
       fill="#feffff"
       opacity="1"
       d="m 439.38,891.68 c 97.17,0.02 194.34,0.01 291.51,0.01 -12.45,48.25 -8.16,100.69 12.36,146.13 -105.39,0.08 -210.79,0.06 -316.18,0.01 20.4,-45.49 24.83,-97.88 12.31,-146.15 z"
       id="path6" />
  </g>
</svg>
