{
    "asset" : {
        "generator" : "Khronos glTF Blender I/O v1.7.33",
        "version" : "2.0"
    },
    "scene" : 0,
    "scenes" : [
        {
            "name" : "Scene",
            "nodes" : [
                0
            ]
        }
    ],
    "nodes" : [
        {
            "mesh" : 0,
            "name" : "VSekaiBall"
        }
    ],
    "materials" : [
        {
            "doubleSided" : true,
            "name" : "VSekaiBall",
            "pbrMetallicRoughness" : {
                "metallicFactor" : 0,
                "roughnessFactor" : 0.5
            }
        }
    ],
    "meshes" : [
        {
            "name" : "VSekaiBall",
            "primitives" : [
                {
                    "attributes" : {
                        "POSITION" : 0,
                        "NORMAL" : 1,
                        "TEXCOORD_0" : 2,
                        "COLOR_0" : 3
                    },
                    "indices" : 4,
                    "material" : 0
                }
            ]
        }
    ],
    "accessors" : [
        {
            "bufferView" : 0,
            "componentType" : 5126,
            "count" : 418,
            "max" : [
                1.6000006198883057,
                1.600000023841858,
                1.600001335144043
            ],
            "min" : [
                -1.6000010967254639,
                -1.600000023841858,
                -1.600000023841858
            ],
            "type" : "VEC3"
        },
        {
            "bufferView" : 1,
            "componentType" : 5126,
            "count" : 418,
            "type" : "VEC3"
        },
        {
            "bufferView" : 2,
            "componentType" : 5126,
            "count" : 418,
            "type" : "VEC2"
        },
        {
            "bufferView" : 3,
            "componentType" : 5123,
            "count" : 418,
            "normalized" : true,
            "type" : "VEC4"
        },
        {
            "bufferView" : 4,
            "componentType" : 5123,
            "count" : 1080,
            "type" : "SCALAR"
        }
    ],
    "bufferViews" : [
        {
            "buffer" : 0,
            "byteLength" : 5016,
            "byteOffset" : 0
        },
        {
            "buffer" : 0,
            "byteLength" : 5016,
            "byteOffset" : 5016
        },
        {
            "buffer" : 0,
            "byteLength" : 3344,
            "byteOffset" : 10032
        },
        {
            "buffer" : 0,
            "byteLength" : 3344,
            "byteOffset" : 13376
        },
        {
            "buffer" : 0,
            "byteLength" : 2160,
            "byteOffset" : 16720
        }
    ],
    "buffers" : [
        {
            "byteLength" : 18880,
            "uri" : "data:application/octet-stream;base64,"
        }
    ]
}
