<?xml version="1.0" encoding="UTF-8" standalone="no"?>
<svg
   xmlns:dc="http://purl.org/dc/elements/1.1/"
   xmlns:cc="http://creativecommons.org/ns#"
   xmlns:rdf="http://www.w3.org/1999/02/22-rdf-syntax-ns#"
   xmlns:svg="http://www.w3.org/2000/svg"
   xmlns="http://www.w3.org/2000/svg"
   xmlns:sodipodi="http://sodipodi.sourceforge.net/DTD/sodipodi-0.dtd"
   xmlns:inkscape="http://www.inkscape.org/namespaces/inkscape"
   width="42"
   height="26"
   version="1.1"
   viewBox="0 0 42 25.999998"
   id="svg6"
   sodipodi:docname="icon_gui_toggle_on.svg"
   inkscape:version="0.92.4 (5da689c313, 2019-01-14)">
  <metadata
     id="metadata12">
    <rdf:RDF>
      <cc:Work
         rdf:about="">
        <dc:format>image/svg+xml</dc:format>
        <dc:type
           rdf:resource="http://purl.org/dc/dcmitype/StillImage" />
      </cc:Work>
    </rdf:RDF>
  </metadata>
  <defs
     id="defs10" />
  <sodipodi:namedview
     pagecolor="#ffffff"
     bordercolor="#666666"
     borderopacity="1"
     objecttolerance="10"
     gridtolerance="10"
     guidetolerance="10"
     inkscape:pageopacity="0"
     inkscape:pageshadow="2"
     inkscape:window-width="1920"
     inkscape:window-height="1057"
     id="namedview8"
     showgrid="false"
     inkscape:zoom="6.8333333"
     inkscape:cx="21"
     inkscape:cy="13"
     inkscape:window-x="-8"
     inkscape:window-y="-8"
     inkscape:window-maximized="1"
     inkscape:current-layer="g4" />
  <g
     transform="translate(0 -1026.4)"
     id="g4">
    <path
       d="m13 1027.4c-6.6307 0-12 5.3662-12 11.998s5.3693 12.002 12 12.002h16c6.6307 0 12-5.3702 12-12.002s-5.3693-11.998-12-11.998zm17 6.9972a1 1.0002 0 0 1 1 1.0001v8.0014a1.0001 1.0003 0 0 1 -1.752 0.6623l-5.248-6.001v5.3387a1 1.0002 0 0 1 -1 1.0001 1 1.0002 0 0 1 -1 -1.0001v-8.0014a1.0001 1.0003 0 0 1 1.752 -0.6583l5.248 6.001v-5.3427a1 1.0002 0 0 1 1 -1.0001zm-15 0c2.7496 0 5 2.2507 5 5.0008s-2.2504 5.0008-5 5.0008-5-2.2507-5-5.0008 2.2504-5.0008 5-5.0008zm0 2.0003c-1.6687 0-3 1.3315-3 3.0005s1.3313 3.0005 3 3.0005 3-1.3315 3-3.0005-1.3313-3.0005-3-3.0005z"
       color="#000000"
       color-rendering="auto"
       dominant-baseline="auto"
       fill="#e0e0e0"
       fill-opacity=".78431"
       image-rendering="auto"
       shape-rendering="auto"
       solid-color="#000000"
       style="font-feature-settings:normal;font-variant-alternates:normal;font-variant-caps:normal;font-variant-ligatures:normal;font-variant-numeric:normal;font-variant-position:normal;isolation:auto;mix-blend-mode:normal;shape-padding:0;text-decoration-color:#000000;text-decoration-line:none;text-decoration-style:solid;text-indent:0;text-orientation:mixed;text-transform:none;white-space:normal;fill:#464646;fill-opacity:0.78430998"
       id="path2" />
  </g>
</svg>
