<?xml version="1.0" encoding="UTF-8" standalone="no"?>
<svg
   xmlns:dc="http://purl.org/dc/elements/1.1/"
   xmlns:cc="http://creativecommons.org/ns#"
   xmlns:rdf="http://www.w3.org/1999/02/22-rdf-syntax-ns#"
   xmlns:svg="http://www.w3.org/2000/svg"
   xmlns="http://www.w3.org/2000/svg"
   xmlns:sodipodi="http://sodipodi.sourceforge.net/DTD/sodipodi-0.dtd"
   xmlns:inkscape="http://www.inkscape.org/namespaces/inkscape"
   width="16"
   height="16"
   version="1.1"
   viewBox="0 0 16 16"
   id="svg6"
   sodipodi:docname="icon_gui_spinbox_updown.svg"
   inkscape:version="0.92.4 (5da689c313, 2019-01-14)">
  <metadata
     id="metadata12">
    <rdf:RDF>
      <cc:Work
         rdf:about="">
        <dc:format>image/svg+xml</dc:format>
        <dc:type
           rdf:resource="http://purl.org/dc/dcmitype/StillImage" />
      </cc:Work>
    </rdf:RDF>
  </metadata>
  <defs
     id="defs10" />
  <sodipodi:namedview
     pagecolor="#ffffff"
     bordercolor="#666666"
     borderopacity="1"
     objecttolerance="10"
     gridtolerance="10"
     guidetolerance="10"
     inkscape:pageopacity="0"
     inkscape:pageshadow="2"
     inkscape:window-width="1920"
     inkscape:window-height="1057"
     id="namedview8"
     showgrid="false"
     inkscape:zoom="14.75"
     inkscape:cx="8"
     inkscape:cy="8"
     inkscape:window-x="-8"
     inkscape:window-y="-8"
     inkscape:window-maximized="1"
     inkscape:current-layer="g4" />
  <g
     transform="translate(0 -1036.4)"
     id="g4">
    <path
       transform="translate(0 1036.4)"
       d="m7.9844 1.002a1.0001 1.0001 0 0 0 -0.69141 0.29102l-4 4a1.0001 1.0001 0 1 0 1.4141 1.4141l3.293-3.293 3.293 3.293a1.0001 1.0001 0 1 0 1.4141 -1.4141l-4-4a1.0001 1.0001 0 0 0 -0.72266 -0.29102zm4.0059 7.9844a1.0001 1.0001 0 0 0 -0.69726 0.30664l-3.293 3.293-3.293-3.293a1.0001 1.0001 0 0 0 -0.7168 -0.30273 1.0001 1.0001 0 0 0 -0.69727 1.7168l4 4a1.0001 1.0001 0 0 0 1.4141 0l4-4a1.0001 1.0001 0 0 0 -0.7168 -1.7207z"
       color="#000000"
       color-rendering="auto"
       dominant-baseline="auto"
       fill="#e0e0e0"
       fill-opacity=".78431"
       image-rendering="auto"
       shape-rendering="auto"
       solid-color="#000000"
       style="font-feature-settings:normal;font-variant-alternates:normal;font-variant-caps:normal;font-variant-ligatures:normal;font-variant-numeric:normal;font-variant-position:normal;isolation:auto;mix-blend-mode:normal;shape-padding:0;text-decoration-color:#000000;text-decoration-line:none;text-decoration-style:solid;text-indent:0;text-orientation:mixed;text-transform:none;white-space:normal;fill:#464646;fill-opacity:0.78430998"
       id="path2" />
  </g>
</svg>
