<?xml version="1.0" encoding="UTF-8" ?>
<!DOCTYPE svg PUBLIC "-//W3C//DTD SVG 1.1//EN" "http://www.w3.org/Graphics/SVG/1.1/DTD/svg11.dtd">
<svg width="1171pt" height="1171pt" viewBox="0 0 1171 1171" version="1.1" xmlns="http://www.w3.org/2000/svg">
<g id="#feffffff">
<path fill="#feffff" opacity="1.00" d=" M 0.00 0.00 L 1171.00 0.00 L 1171.00 1171.00 L 0.00 1171.00 L 0.00 0.00 M 570.08 59.19 C 532.33 62.49 495.99 79.35 469.04 105.97 C 447.01 127.42 431.20 155.15 423.98 185.03 C 415.69 219.05 418.40 255.71 431.94 288.03 C 444.82 319.11 467.45 346.03 495.80 364.13 C 525.61 383.33 561.72 392.46 597.08 389.81 C 629.87 387.58 661.86 375.18 687.63 354.78 C 713.29 334.65 732.82 306.80 742.87 275.76 C 755.14 238.29 753.45 196.43 738.08 160.11 C 724.80 128.35 701.28 101.03 671.95 83.01 C 641.76 64.30 605.43 55.92 570.08 59.19 M 611.96 443.97 C 671.59 558.55 731.18 673.15 790.87 787.69 C 826.35 752.81 873.74 730.52 923.18 725.15 C 863.23 610.02 803.38 494.83 743.36 379.74 C 708.42 415.12 661.29 437.99 611.96 443.97 M 247.11 725.17 C 296.56 730.44 343.96 752.80 379.41 787.70 C 439.11 673.15 498.68 558.53 558.35 443.96 C 508.99 437.97 461.92 415.07 426.90 379.75 C 366.91 494.86 307.02 610.02 247.11 725.17 M 217.27 781.34 C 190.59 782.26 164.16 789.74 141.00 803.02 C 111.63 819.76 87.56 845.66 73.17 876.26 C 57.65 908.90 53.39 946.69 61.00 982.00 C 67.14 1010.90 81.29 1038.00 101.37 1059.66 C 121.86 1081.88 148.52 1098.35 177.60 1106.61 C 209.93 1115.86 245.08 1114.98 276.89 1104.07 C 301.40 1095.73 323.83 1081.45 341.90 1062.91 C 362.12 1042.22 376.82 1016.17 383.91 988.11 C 392.54 954.42 390.22 918.01 377.30 885.72 C 364.78 854.16 342.26 826.72 313.83 808.18 C 285.45 789.50 251.20 780.06 217.27 781.34 M 941.25 781.34 C 905.46 782.49 870.21 795.73 842.49 818.40 C 817.90 838.36 799.17 865.46 789.40 895.60 C 777.49 931.94 778.64 972.40 792.77 1007.95 C 805.12 1039.39 827.39 1066.81 855.57 1085.43 C 883.87 1104.27 918.08 1114.01 952.06 1112.88 C 987.49 1111.98 1022.46 1099.19 1050.14 1077.08 C 1074.83 1057.51 1093.81 1030.80 1104.00 1000.98 C 1116.54 964.65 1115.88 923.93 1102.13 888.04 C 1089.81 855.54 1066.92 827.21 1037.83 808.23 C 1009.45 789.52 975.19 780.07 941.25 781.34 M 439.40 891.69 C 451.84 940.01 447.45 992.41 427.06 1037.96 C 532.44 1037.97 637.83 1037.96 743.21 1037.96 C 722.85 992.40 718.42 940.02 730.86 891.70 C 633.71 891.69 536.56 891.71 439.40 891.69 Z" />
</g>
<g id="#000000ff">
<path fill="#000000" opacity="1.00" d=" M 570.08 59.19 C 605.43 55.92 641.76 64.30 671.95 83.01 C 701.28 101.03 724.80 128.35 738.08 160.11 C 753.45 196.43 755.14 238.29 742.87 275.76 C 732.82 306.80 713.29 334.65 687.63 354.78 C 661.86 375.18 629.87 387.58 597.08 389.81 C 561.72 392.46 525.61 383.33 495.80 364.13 C 467.45 346.03 444.82 319.11 431.94 288.03 C 418.40 255.71 415.69 219.05 423.98 185.03 C 431.20 155.15 447.01 127.42 469.04 105.97 C 495.99 79.35 532.33 62.49 570.08 59.19 Z" />
<path fill="#000000" opacity="1.00" d=" M 611.96 443.97 C 661.29 437.99 708.42 415.12 743.36 379.74 C 803.38 494.83 863.23 610.02 923.18 725.15 C 873.74 730.52 826.35 752.81 790.87 787.69 C 731.18 673.15 671.59 558.55 611.96 443.97 Z" />
<path fill="#000000" opacity="1.00" d=" M 247.11 725.17 C 307.02 610.02 366.91 494.86 426.90 379.75 C 461.92 415.07 508.99 437.97 558.35 443.96 C 498.68 558.53 439.11 673.15 379.41 787.70 C 343.96 752.80 296.56 730.44 247.11 725.17 Z" />
<path fill="#000000" opacity="1.00" d=" M 217.27 781.34 C 251.20 780.06 285.45 789.50 313.83 808.18 C 342.26 826.72 364.78 854.16 377.30 885.72 C 390.22 918.01 392.54 954.42 383.91 988.11 C 376.82 1016.17 362.12 1042.22 341.90 1062.91 C 323.83 1081.45 301.40 1095.73 276.89 1104.07 C 245.08 1114.98 209.93 1115.86 177.60 1106.61 C 148.52 1098.35 121.86 1081.88 101.37 1059.66 C 81.29 1038.00 67.14 1010.90 61.00 982.00 C 53.39 946.69 57.65 908.90 73.17 876.26 C 87.56 845.66 111.63 819.76 141.00 803.02 C 164.16 789.74 190.59 782.26 217.27 781.34 Z" />
<path fill="#000000" opacity="1.00" d=" M 941.25 781.34 C 975.19 780.07 1009.45 789.52 1037.83 808.23 C 1066.92 827.21 1089.81 855.54 1102.13 888.04 C 1115.88 923.93 1116.54 964.65 1104.00 1000.98 C 1093.81 1030.80 1074.83 1057.51 1050.14 1077.08 C 1022.46 1099.19 987.49 1111.98 952.06 1112.88 C 918.08 1114.01 883.87 1104.27 855.57 1085.43 C 827.39 1066.81 805.12 1039.39 792.77 1007.95 C 778.64 972.40 777.49 931.94 789.40 895.60 C 799.17 865.46 817.90 838.36 842.49 818.40 C 870.21 795.73 905.46 782.49 941.25 781.34 Z" />
<path fill="#000000" opacity="1.00" d=" M 439.40 891.69 C 536.56 891.71 633.71 891.69 730.86 891.70 C 718.42 940.02 722.85 992.40 743.21 1037.96 C 637.83 1037.96 532.44 1037.97 427.06 1037.96 C 447.45 992.41 451.84 940.01 439.40 891.69 Z" />
</g>
</svg>
