<?xml version="1.0" encoding="UTF-8" ?>
<!DOCTYPE svg PUBLIC "-//W3C//DTD SVG 1.1//EN" "http://www.w3.org/Graphics/SVG/1.1/DTD/svg11.dtd">
<svg width="1171pt" height="1171pt" viewBox="0 0 1171 1171" version="1.1" xmlns="http://www.w3.org/2000/svg">
<g id="#feffffff">
<path fill="#feffff" opacity="1.00" d=" M 563.54 59.91 C 601.13 54.97 640.36 63.22 672.52 83.37 C 702.84 102.15 726.87 130.92 739.74 164.20 C 754.48 201.89 754.72 245.03 740.38 282.88 C 727.07 318.44 701.06 349.03 668.17 367.99 C 634.63 387.61 594.04 394.53 555.83 387.64 C 519.32 381.22 485.26 361.99 460.81 334.14 C 433.63 303.65 418.49 262.79 419.33 221.94 C 419.65 187.54 431.23 153.39 451.75 125.79 C 478.08 89.91 519.36 65.47 563.54 59.91 Z" />
<path fill="#feffff" opacity="1.00" d=" M 247.08 725.19 C 307.02 610.03 366.94 494.87 426.89 379.72 C 461.91 415.03 509.02 438.10 558.43 443.90 C 498.64 558.46 439.19 673.19 379.36 787.73 C 344.00 752.76 296.52 730.41 247.08 725.19 Z" />
<path fill="#feffff" opacity="1.00" d=" M 730.07 392.05 C 734.78 388.24 738.93 383.79 743.54 379.88 C 803.35 495.02 863.33 610.08 923.21 725.19 C 874.67 730.37 828.03 751.96 792.87 785.84 C 792.28 786.74 790.48 787.66 790.02 786.17 C 730.71 672.06 671.21 558.04 611.97 443.90 C 655.30 438.77 696.95 420.45 730.07 392.05 Z" />
<path fill="#feffff" opacity="1.00" d=" M 207.90 781.96 C 245.78 778.38 284.80 788.25 316.22 809.77 C 345.40 829.50 368.02 858.76 379.67 892.01 C 392.00 926.97 392.14 966.08 380.03 1001.11 C 370.41 1029.10 353.13 1054.41 330.54 1073.52 C 311.87 1089.43 289.62 1101.12 265.91 1107.41 C 236.53 1115.17 205.00 1114.76 175.87 1106.10 C 151.31 1098.83 128.51 1085.72 109.84 1068.17 C 87.55 1047.40 71.16 1020.35 63.18 990.93 C 53.01 953.82 56.16 913.15 72.28 878.18 C 86.76 846.36 111.63 819.41 142.15 802.37 C 162.30 791.03 184.87 784.03 207.90 781.96 Z" />
<path fill="#feffff" opacity="1.00" d=" M 931.88 781.95 C 971.23 778.22 1011.78 789.09 1043.79 812.32 C 1072.12 832.61 1093.82 862.03 1104.66 895.16 C 1118.52 937.02 1114.87 984.42 1094.35 1023.49 C 1077.74 1055.63 1050.30 1082.02 1017.50 1097.32 C 977.09 1116.47 928.80 1118.04 887.16 1101.78 C 854.32 1089.13 825.82 1065.64 807.00 1035.91 C 785.60 1002.50 777.08 961.23 783.15 922.06 C 788.33 886.90 805.42 853.66 830.84 828.85 C 857.75 802.16 894.12 785.27 931.88 781.95 Z" />
<path fill="#feffff" opacity="1.00" d=" M 439.38 891.68 C 536.55 891.70 633.72 891.69 730.89 891.69 C 718.44 939.94 722.73 992.38 743.25 1037.82 C 637.86 1037.90 532.46 1037.88 427.07 1037.83 C 447.47 992.34 451.90 939.95 439.38 891.68 Z" />
</g>
</svg>
