{
    "asset" : {
        "generator" : "Khronos glTF Blender I/O v3.2.40",
        "version" : "2.0"
    },
    "scene" : 0,
    "scenes" : [
        {
            "name" : "Scene",
            "nodes" : [
                1
            ]
        }
    ],
    "nodes" : [
        {
            "mesh" : 0,
            "name" : "GodotJaw"
        },
        {
            "children" : [
                0
            ],
            "mesh" : 1,
            "name" : "GodotHead"
        }
    ],
    "materials" : [
        {
            "doubleSided" : true,
            "name" : "MetalBlue",
            "pbrMetallicRoughness" : {
                "baseColorFactor" : [
                    0.059171486645936966,
                    0.23010246455669403,
                    0.5382252335548401,
                    1
                ],
                "roughnessFactor" : 0.5
            }
        },
        {
            "doubleSided" : true,
            "emissiveFactor" : [
                1,
                1,
                1
            ],
            "name" : "Light",
            "pbrMetallicRoughness" : {
                "baseColorFactor" : [
                    0,
                    0,
                    0,
                    1
                ]
            }
        }
    ],
    "meshes" : [
        {
            "name" : "Roundcube.002",
            "primitives" : [
                {
                    "attributes" : {
                        "POSITION" : 0,
                        "NORMAL" : 1
                    },
                    "indices" : 2,
                    "material" : 0
                }
            ]
        },
        {
            "name" : "Roundcube",
            "primitives" : [
                {
                    "attributes" : {
                        "POSITION" : 3,
                        "NORMAL" : 4
                    },
                    "indices" : 5,
                    "material" : 0
                },
                {
                    "attributes" : {
                        "POSITION" : 6,
                        "NORMAL" : 7
                    },
                    "indices" : 8,
                    "material" : 1
                }
            ]
        }
    ],
    "accessors" : [
        {
            "bufferView" : 0,
            "componentType" : 5126,
            "count" : 3890,
            "max" : [
                1.3085094690322876,
                -0.6584562659263611,
                1.314990520477295
            ],
            "min" : [
                -1.3085094690322876,
                -1.5071666240692139,
                0.004557936917990446
            ],
            "type" : "VEC3"
        },
        {
            "bufferView" : 1,
            "componentType" : 5126,
            "count" : 3890,
            "type" : "VEC3"
        },
        {
            "bufferView" : 2,
            "componentType" : 5123,
            "count" : 23328,
            "type" : "SCALAR"
        },
        {
            "bufferView" : 3,
            "componentType" : 5126,
            "count" : 9184,
            "max" : [
                1.5099272727966309,
                1.5452954769134521,
                1.3047860860824585
            ],
            "min" : [
                -1.5099272727966309,
                -1.4520326852798462,
                -1.2314711809158325
            ],
            "type" : "VEC3"
        },
        {
            "bufferView" : 4,
            "componentType" : 5126,
            "count" : 9184,
            "type" : "VEC3"
        },
        {
            "bufferView" : 5,
            "componentType" : 5123,
            "count" : 54912,
            "type" : "SCALAR"
        },
        {
            "bufferView" : 6,
            "componentType" : 5126,
            "count" : 418,
            "max" : [
                0.7824836373329163,
                -0.05840010568499565,
                1.2600430250167847
            ],
            "min" : [
                -0.782483696937561,
                -0.5117601156234741,
                1.2504271268844604
            ],
            "type" : "VEC3"
        },
        {
            "bufferView" : 7,
            "componentType" : 5126,
            "count" : 418,
            "type" : "VEC3"
        },
        {
            "bufferView" : 8,
            "componentType" : 5123,
            "count" : 2304,
            "type" : "SCALAR"
        }
    ],
    "bufferViews" : [
        {
            "buffer" : 0,
            "byteLength" : 46680,
            "byteOffset" : 0
        },
        {
            "buffer" : 0,
            "byteLength" : 46680,
            "byteOffset" : 46680
        },
        {
            "buffer" : 0,
            "byteLength" : 46656,
            "byteOffset" : 93360
        },
        {
            "buffer" : 0,
            "byteLength" : 110208,
            "byteOffset" : 140016
        },
        {
            "buffer" : 0,
            "byteLength" : 110208,
            "byteOffset" : 250224
        },
        {
            "buffer" : 0,
            "byteLength" : 109824,
            "byteOffset" : 360432
        },
        {
            "buffer" : 0,
            "byteLength" : 5016,
            "byteOffset" : 470256
        },
        {
            "buffer" : 0,
            "byteLength" : 5016,
            "byteOffset" : 475272
        },
        {
            "buffer" : 0,
            "byteLength" : 4608,
            "byteOffset" : 480288
        }
    ],
    "buffers" : [
        {
            "byteLength" : 484896,
            "uri" : "godot_head.bin"
        }
    ]
}
