<?xml version="1.0" encoding="UTF-8" ?>
<!DOCTYPE svg PUBLIC "-//W3C//DTD SVG 1.1//EN" "http://www.w3.org/Graphics/SVG/1.1/DTD/svg11.dtd">
<svg width="256pt" height="256pt" viewBox="0 0 256 256" version="1.1" xmlns="http://www.w3.org/2000/svg">
<g id="#fefefefe">
<path fill="#fefefe" opacity="1.00" d=" M 127.32 0.00 L 128.67 0.00 C 134.19 4.15 138.55 9.89 144.87 12.89 C 152.73 15.24 160.87 16.65 168.62 19.39 C 188.28 26.86 205.72 39.75 218.83 56.17 C 233.36 74.33 241.70 97.09 243.80 120.16 C 244.68 142.80 240.34 166.16 228.85 185.89 C 208.87 221.94 168.38 245.99 127.00 244.83 C 104.32 244.89 81.76 237.70 63.08 224.90 C 28.70 202.01 8.22 159.69 12.56 118.48 C 15.79 73.36 48.03 32.02 91.09 18.19 C 98.16 15.79 105.61 14.70 112.69 12.39 C 118.47 9.52 122.29 3.91 127.32 0.00 M 126.62 34.67 C 121.36 37.92 117.29 43.63 110.47 43.59 C 69.56 50.11 38.97 91.09 41.16 131.96 C 42.47 149.74 48.06 167.65 59.38 181.66 C 80.76 210.29 121.28 223.06 155.09 211.05 C 194.57 198.99 221.45 155.27 213.37 114.61 C 209.00 81.79 183.51 53.17 151.61 44.65 C 145.38 42.76 137.34 43.90 133.05 37.95 C 131.18 36.93 129.34 32.61 126.62 34.67 Z" />
</g>
</svg>
