<?xml version="1.0" encoding="UTF-8" standalone="no"?>
<!-- Created with Inkscape (http://www.inkscape.org/) -->

<svg
   width="200"
   height="200"
   viewBox="0 0 52.916665 52.916666"
   version="1.1"
   id="svg5"
   xml:space="preserve"
   inkscape:version="1.2.1 (9c6d41e410, 2022-07-14, custom)"
   sodipodi:docname="icon.svg"
   xmlns:inkscape="http://www.inkscape.org/namespaces/inkscape"
   xmlns:sodipodi="http://sodipodi.sourceforge.net/DTD/sodipodi-0.dtd"
   xmlns="http://www.w3.org/2000/svg"
   xmlns:svg="http://www.w3.org/2000/svg"><sodipodi:namedview
     id="namedview7"
     pagecolor="#ffffff"
     bordercolor="#666666"
     borderopacity="1.0"
     inkscape:showpageshadow="2"
     inkscape:pageopacity="0.0"
     inkscape:pagecheckerboard="0"
     inkscape:deskcolor="#d1d1d1"
     inkscape:document-units="mm"
     showgrid="false"
     inkscape:zoom="2.096401"
     inkscape:cx="58.910485"
     inkscape:cy="140.00184"
     inkscape:window-width="1920"
     inkscape:window-height="1011"
     inkscape:window-x="0"
     inkscape:window-y="32"
     inkscape:window-maximized="1"
     inkscape:current-layer="g384" /><defs
     id="defs2" /><g
     inkscape:label="Layer 1"
     inkscape:groupmode="layer"
     id="layer1"><g
       id="g384"
       transform="translate(-15.408174,-10.773368)"><g
         id="g506"
         transform="translate(0.31014185,-2.6318792)"><rect
           style="fill:#ffffff;stroke:#fc7f7f;stroke-width:0.396875;stroke-dashoffset:0.8316"
           id="rect443"
           width="32.573826"
           height="35.944275"
           x="25.284109"
           y="22.257559"
           ry="0.46082175" /><g
           id="g374"
           transform="matrix(1.6256092,0,0,1.6256092,-89.627696,-82.033218)"><path
             style="fill:#cfecf6;stroke-width:0.264583"
             d="m 76.630328,90.47021 c -5.341184,-1.465254 -9.788127,-5.854531 -11.364112,-11.216743 -0.56644,-1.927287 -0.56644,-6.575627 0,-8.502914 1.265794,-4.306802 4.462272,-8.136006 8.335561,-9.985542 2.641174,-1.261188 4.287843,-1.638001 7.15805,-1.638001 4.376343,0 7.759948,1.427396 10.948893,4.618863 2.431002,2.432923 3.583694,4.400136 4.36246,7.445082 0.663438,2.594018 0.663438,5.028092 0,7.62211 -0.778766,3.044946 -1.931458,5.012159 -4.36246,7.445082 -2.30392,2.305743 -4.260929,3.449069 -7.191604,4.201485 -1.976414,0.507421 -6.055738,0.512893 -7.886788,0.01058 z m 2.441948,-10.338177 -0.07322,-3.86581 -3.042708,-1.677834 c -1.67349,-0.922809 -3.135274,-1.683506 -3.24841,-1.69044 -0.113137,-0.0069 -0.172668,1.681708 -0.132292,3.752537 l 0.07341,3.765142 3.042709,1.779693 c 1.673489,0.978832 3.135188,1.78483 3.248219,1.791108 0.11303,0.0063 0.172562,-1.7282 0.132291,-3.854396 z m 7.266159,1.467657 2.047711,-1.173722 0.0028,-3.790872 0.0028,-3.790872 -2.844271,1.513803 c -1.564349,0.832591 -2.993099,1.630328 -3.175,1.772748 -0.237403,0.185875 -0.330729,1.338775 -0.330729,4.085627 v 3.826682 l 1.124479,-0.634836 c 0.618463,-0.34916 2.045949,-1.163012 3.17219,-1.808558 z m -2.094349,-9.406883 c 2.062942,-1.108499 3.785435,-2.04602 3.82776,-2.083379 0.116325,-0.102676 -7.285342,-4.367835 -7.579849,-4.367835 -0.140702,0 -1.940425,0.971517 -3.999384,2.158926 l -3.743563,2.158926 2.463545,1.314385 c 1.35495,0.722912 3.058858,1.649697 3.786462,2.059523 0.727605,0.409827 1.361461,0.751837 1.40857,0.760023 0.04711,0.0082 1.773516,-0.89207 3.836459,-2.000569 z"
             id="path389" /><path
             style="fill:#b5e3f1;stroke-width:0.264583"
             d="m 76.909146,90.45528 c -5.075243,-1.228026 -9.587865,-5.353816 -11.309441,-10.339967 -0.525453,-1.521854 -0.623564,-2.32638 -0.623564,-5.113303 0,-3.999155 0.535844,-5.855856 2.565998,-8.891189 7.280863,-10.885793 24.072035,-8.503676 28.169981,3.996397 1.442225,4.399259 0.747284,9.709722 -1.773375,13.551451 -1.328336,2.024512 -3.732861,4.236974 -5.805234,5.341538 -3.238252,1.725969 -7.709345,2.305581 -11.224365,1.455073 z m 2.220056,-10.227749 -0.0021,-4.034896 -3.139115,-1.653646 c -1.726514,-0.909505 -3.213829,-1.653646 -3.305145,-1.653646 -0.09132,0 -0.165159,1.696641 -0.164094,3.770313 l 0.0019,3.770312 3.239211,1.896543 c 1.781565,1.043099 3.268976,1.906302 3.305356,1.918229 0.03638,0.01193 0.06518,-1.794016 0.064,-4.013209 z m 7.079751,1.520448 2.182813,-1.261139 v -3.800748 c 0,-2.090412 -0.05425,-3.800749 -0.120553,-3.800749 -0.0663,0 -1.52482,0.764712 -3.241146,1.69936 l -3.120593,1.69936 -0.07319,4.018454 -0.07319,4.018454 1.131528,-0.655927 c 0.622341,-0.36076 2.113794,-1.223439 3.314341,-1.917065 z m -1.853854,-9.553484 c 3.119366,-1.641539 3.760517,-2.074485 3.46866,-2.342264 -0.196919,-0.180675 -1.925333,-1.22877 -3.840919,-2.3291 l -3.482883,-2.000602 -3.657069,2.103339 c -2.011388,1.156837 -3.757717,2.203987 -3.880732,2.327001 -0.168432,0.168433 6.924581,4.205161 7.463033,4.247311 0.05677,0.0044 1.825228,-0.898114 3.92991,-2.005685 z"
             id="path386" /><path
             style="fill:#8fd4eb;stroke-width:0.264583"
             d="m 76.848702,90.371378 c -2.838745,-0.771213 -4.924346,-1.950463 -7.093224,-4.010684 -6.557271,-6.228767 -6.571798,-16.474802 -0.03216,-22.686813 3.363368,-3.194871 7.573858,-4.775395 11.898906,-4.466583 6.778392,0.483982 12.571864,5.225168 14.318839,11.718065 0.548069,2.036979 0.548069,6.116315 0,8.153294 -1.340932,4.983781 -5.278185,9.198028 -10.189027,10.90585 -2.710076,0.942472 -6.286242,1.097865 -8.903329,0.386871 z M 79.131349,80.210389 V 76.158352 L 78.271453,75.72671 C 77.79851,75.489308 76.310229,74.694175 74.964162,73.959749 l -2.447396,-1.335321 v 3.934937 3.934937 l 3.241146,1.868221 c 1.78263,1.027521 3.270911,1.875349 3.307291,1.884062 0.03638,0.0087 0.06615,-1.807575 0.06615,-4.036196 z m 7.474479,1.361203 1.785938,-1.036674 v -3.824787 c 0,-2.103633 -0.0893,-3.822919 -0.198438,-3.820635 -0.10914,0.0023 -1.567656,0.756374 -3.241146,1.675755 l -3.042708,1.671603 -0.07319,4.042021 -0.07319,4.042021 1.528403,-0.856315 c 0.840621,-0.470973 2.332075,-1.322818 3.31434,-1.892989 z m -2.114331,-9.38441 c 2.072387,-1.111593 3.804223,-2.05073 3.848524,-2.08697 0.0443,-0.03624 -1.711114,-1.092699 -3.900922,-2.347684 l -3.981469,-2.28179 -3.967163,2.30464 -3.967163,2.30464 2.973293,1.56959 c 1.635312,0.863274 3.330481,1.782264 3.767044,2.042201 0.436562,0.259936 0.943629,0.482476 1.126815,0.494531 0.183185,0.01206 2.028654,-0.887565 4.101041,-1.999158 z"
             id="path384" /><path
             style="fill:#69c6e5;stroke-width:0.264583"
             d="M 77.411557,90.440818 C 74.349483,89.79098 71.937133,88.462695 69.624769,86.153266 67.30069,83.832139 66.137273,81.826687 65.366519,78.813065 64.412454,75.082708 64.906615,71.02841 66.744127,67.51061 c 0.517975,-0.991631 1.653343,-2.434116 2.880642,-3.659857 2.403438,-2.400387 4.770226,-3.660501 8.151465,-4.339966 7.516235,-1.510397 15.251966,3.01302 17.8091,10.413752 0.885074,2.561535 0.885074,7.593407 0,10.154942 -1.333241,3.858597 -4.248555,7.192679 -7.834691,8.960096 -3.554293,1.751721 -6.686997,2.176293 -10.339086,1.401241 z m 1.984375,-10.114744 c 0,-2.835558 -0.09249,-4.00826 -0.330729,-4.193484 -0.181901,-0.141422 -1.729713,-0.997432 -3.439583,-1.902244 l -3.108854,-1.645113 v 3.969061 3.969062 l 3.23744,1.869535 c 1.780592,1.028245 3.328404,1.869536 3.439583,1.869536 0.111179,0 0.202143,-1.771359 0.202143,-3.936353 z m 5.953164,2.021582 3.307253,-1.91477 v -3.928112 c 0,-2.160461 -0.102357,-3.888424 -0.22746,-3.839917 -0.125102,0.04851 -1.670597,0.862101 -3.434432,1.807986 l -3.206973,1.719792 -0.0052,4.034896 c -0.0028,2.219193 0.0544,4.034896 0.127179,4.034896 0.07278,0 1.620594,-0.861647 3.439584,-1.914771 z M 84.609774,72.18182 c 3.386268,-1.778859 3.801343,-2.067551 3.39738,-2.362936 -0.253102,-0.185072 -2.054665,-1.249557 -4.003472,-2.365521 l -3.543286,-2.029026 -3.999098,2.315655 c -3.422385,1.981711 -3.928391,2.356019 -3.508795,2.59556 2.492184,1.422741 7.175979,3.848159 7.452296,3.859035 0.191074,0.0075 2.083313,-0.898225 4.204975,-2.012767 z"
             id="path382" /><path
             style="fill:#4bbbe0;stroke-width:0.264583"
             d="M 77.819461,90.487083 C 73.146775,89.606367 68.629409,86.233477 66.647795,82.14576 64.917402,78.576268 64.478854,75.256023 65.275276,71.754424 c 1.131267,-4.973803 3.925495,-8.552315 8.432115,-10.798839 6.3276,-3.154273 13.630936,-1.792468 18.464045,3.442869 5.791132,6.273085 5.543916,15.63494 -0.574174,21.743372 -3.73583,3.729931 -8.713478,5.299789 -13.777801,4.345257 z m 1.517217,-10.255145 -0.07304,-4.030489 -3.175,-1.773083 c -1.74625,-0.975195 -3.267398,-1.78085 -3.380329,-1.790344 -0.112931,-0.0095 -0.172462,1.793326 -0.132292,4.006268 l 0.07304,4.02353 3.042709,1.773933 c 1.673489,0.975663 3.194637,1.784449 3.380329,1.797303 0.26298,0.0182 0.321473,-0.867675 0.264583,-4.007118 z m 6.050411,2.146056 3.26926,-1.884432 v -3.936401 c 0,-2.165021 -0.06884,-3.936401 -0.152966,-3.936401 -0.08413,0 -1.631944,0.800109 -3.439583,1.778021 l -3.286618,1.778021 v 4.042812 c 0,2.223547 0.07665,4.042813 0.170323,4.042813 0.09368,0 1.641491,-0.847995 3.439584,-1.884433 z m -0.07879,-10.5455 c 2.547607,-1.345719 3.067589,-1.716724 2.778125,-1.98218 -0.468863,-0.429976 -7.337127,-4.373304 -7.61717,-4.373304 -0.244205,0 -7.431592,4.146497 -7.780009,4.488388 -0.123416,0.121105 1.600129,1.177906 3.8301,2.348446 l 4.054493,2.128257 0.800109,-0.477005 c 0.44006,-0.262353 2.210518,-1.222024 3.934352,-2.132602 z"
             id="path380" /><path
             style="fill:#2dafda;stroke-width:0.264583"
             d="M 76.807509,90.228969 C 70.881874,88.794173 66.299607,83.756585 65.181327,77.447543 c -0.399751,-2.255292 -0.400333,-2.632493 -0.0075,-4.848893 0.796242,-4.492191 3.100168,-8.131947 6.650557,-10.506592 2.679152,-1.791926 4.70566,-2.458622 7.968398,-2.621506 4.836717,-0.241459 8.575853,1.18368 11.90625,4.537965 2.150137,2.165559 3.369964,4.298547 4.10754,7.182438 0.956958,3.741675 0.456152,7.816609 -1.389062,11.302455 -1.846731,3.488702 -5.951145,6.680726 -9.900419,7.699604 -1.933397,0.498798 -5.725059,0.51648 -7.709607,0.03596 z m 2.588423,-9.877063 V 76.176802 L 76.109315,74.398781 C 74.301676,73.420869 72.694332,72.62076 72.53744,72.62076 c -0.191181,0 -0.285258,1.299081 -0.285258,3.93905 v 3.939049 l 3.50573,2.013329 c 1.928151,1.10733 3.535494,2.013664 3.571875,2.014075 0.03638,4.23e-4 0.06615,-1.87805 0.06615,-4.174357 z m 6.614584,1.713978 2.513541,-1.448901 0.07304,-3.998112 c 0.04017,-2.198961 -0.0065,-3.998111 -0.103761,-3.998111 -0.09724,0 -1.648152,0.780549 -3.446474,1.734554 l -3.269678,1.734555 v 4.24015 4.24015 l 0.859896,-0.527692 c 0.472943,-0.29023 1.99099,-1.179697 3.373438,-1.976593 z M 84.40296,72.406519 c 2.099022,-1.125672 3.852888,-2.163048 3.89748,-2.305281 0.08363,-0.266735 -7.29007,-4.624228 -7.825064,-4.624228 -0.494285,0 -7.942378,4.346829 -7.87167,4.594035 0.05903,0.206367 7.535919,4.379071 7.85056,4.38124 0.07276,5.03e-4 1.849673,-0.920093 3.948694,-2.045766 z"
             id="path378" /><path
             style="fill:#1aa8d7;stroke-width:0.264583"
             d="M 77.125189,90.220185 C 73.05499,89.334524 68.544776,85.813435 66.758054,82.126646 63.673592,75.762052 64.734136,69.033699 69.59575,64.123597 c 8.267188,-8.349641 22.062789,-5.156953 25.835171,5.978983 1.027565,3.033335 1.027565,6.765525 0,9.79886 -1.288331,3.803103 -4.006477,7.027061 -7.551148,8.956312 -2.896331,1.57638 -7.241567,2.126851 -10.754584,1.362433 z m 2.270743,-9.906481 v -4.213306 l -3.45771,-1.872111 c -1.90174,-1.029661 -3.512108,-1.87211 -3.578593,-1.87211 -0.06649,0 -0.08809,1.857094 -0.04802,4.126877 l 0.07286,4.126878 3.307292,1.947657 c 1.81901,1.071212 3.396588,1.952554 3.505729,1.958539 0.10914,0.006 0.198437,-1.885106 0.198437,-4.202424 z m 5.840988,2.295077 3.405573,-1.918229 0.0069,-4.185721 0.0069,-4.18572 -2.050521,1.117536 c -1.127786,0.614645 -2.733717,1.486188 -3.568736,1.936762 l -1.518214,0.819226 -0.0031,4.167188 c -0.0017,2.291953 0.06858,4.167187 0.156235,4.167187 0.08766,0 1.691882,-0.863203 3.564947,-1.918229 z M 84.568667,72.375498 c 2.175465,-1.15354 3.95539,-2.187337 3.95539,-2.297326 0,-0.109989 -1.811074,-1.246477 -4.024611,-2.525529 l -4.02461,-2.325548 -3.91289,2.264628 c -2.152088,1.245545 -4.012437,2.359778 -4.134107,2.476072 -0.177477,0.169635 7.514413,4.473109 8.039786,4.498116 0.08011,0.0038 1.925577,-0.936873 4.101042,-2.090413 z"
             id="path376" /></g></g></g></g></svg>
