<?xml version="1.0" encoding="UTF-8"?>
<!DOCTYPE svg PUBLIC "-//W3C//DTD SVG 1.1//EN" "http://www.w3.org/Graphics/SVG/1.1/DTD/svg11.dtd">
<svg width="256pt" height="256pt" viewBox="0 0 256 256" version="1.1" xmlns="http://www.w3.org/2000/svg">
<g id="#0e0e0ee9">
<path fill="#0e0e0e" opacity="0.91" d=" M 118.17 17.31 C 141.43 15.26 165.31 20.66 185.30 32.73 C 207.77 46.13 225.35 67.63 233.65 92.45 C 241.44 114.67 241.75 139.44 234.65 161.88 C 229.89 177.91 221.01 192.49 209.85 204.86 C 190.77 225.28 163.91 238.35 135.97 240.19 C 110.59 242.10 84.56 234.98 63.80 220.23 C 44.01 206.58 28.94 186.17 21.64 163.27 C 14.37 141.37 14.26 117.11 21.30 95.14 C 27.95 73.55 41.50 54.10 59.43 40.35 C 76.20 27.17 96.94 19.14 118.17 17.31 M 110.68 20.90 C 91.04 23.94 72.44 32.66 57.25 45.44 C 37.72 62.07 24.16 85.71 20.20 111.09 C 17.28 128.31 18.72 146.14 24.13 162.72 C 33.47 191.72 55.60 216.39 83.57 228.55 C 110.96 241.05 143.50 240.96 171.13 229.26 C 179.17 225.63 186.85 221.18 193.94 215.92 C 216.72 198.72 232.40 172.33 236.17 143.99 C 239.41 121.39 235.33 97.73 224.51 77.60 C 212.85 55.39 193.22 37.43 169.99 27.94 C 151.42 20.08 130.56 17.63 110.68 20.90 Z"/>
<path fill="#0e0e0e" opacity="0.91" d=" M 116.56 38.91 C 134.47 36.76 153.02 39.80 169.07 48.11 C 191.82 59.57 209.32 81.15 215.54 105.89 C 220.77 125.53 219.10 146.99 210.69 165.51 C 198.89 192.93 172.49 213.29 143.05 218.02 C 118.74 222.34 92.76 215.86 73.21 200.82 C 57.64 189.13 46.15 172.16 40.90 153.44 C 35.09 133.09 36.67 110.66 45.56 91.43 C 57.99 63.16 85.94 42.66 116.56 38.91 M 113.51 41.82 C 105.47 43.22 97.66 45.80 90.22 49.15 C 69.93 58.77 53.51 76.38 45.68 97.47 C 39.07 114.73 38.05 134.12 43.08 151.92 C 48.29 171.27 60.41 188.70 76.80 200.24 C 91.55 210.92 109.81 216.79 128.02 216.61 C 146.43 216.73 164.87 210.71 179.68 199.78 C 194.73 188.96 206.16 173.13 211.70 155.43 C 217.51 137.59 217.33 117.78 211.07 100.07 C 203.12 76.19 184.16 56.37 160.81 47.08 C 145.90 41.03 129.39 39.28 113.51 41.82 Z"/>
</g>
<g id="#ffffffff">
<path fill="#ffffff" opacity="1.00" d=" M 110.68 20.90 C 130.56 17.63 151.42 20.08 169.99 27.94 C 193.22 37.43 212.85 55.39 224.51 77.60 C 235.33 97.73 239.41 121.39 236.17 143.99 C 232.40 172.33 216.72 198.72 193.94 215.92 C 186.85 221.18 179.17 225.63 171.13 229.26 C 143.50 240.96 110.96 241.05 83.57 228.55 C 55.60 216.39 33.47 191.72 24.13 162.72 C 18.72 146.14 17.28 128.31 20.20 111.09 C 24.16 85.71 37.72 62.07 57.25 45.44 C 72.44 32.66 91.04 23.94 110.68 20.90 M 116.56 38.91 C 85.94 42.66 57.99 63.16 45.56 91.43 C 36.67 110.66 35.09 133.09 40.90 153.44 C 46.15 172.16 57.64 189.13 73.21 200.82 C 92.76 215.86 118.74 222.34 143.05 218.02 C 172.49 213.29 198.89 192.93 210.69 165.51 C 219.10 146.99 220.77 125.53 215.54 105.89 C 209.32 81.15 191.82 59.57 169.07 48.11 C 153.02 39.80 134.47 36.76 116.56 38.91 Z"/>
</g>
</svg>